# xmcd
#
# Track frame offsets:
#   150
#   21990
#   47024
#   80695
#   114725
#   144367
#   175680
#   204678
#   230955
#   258477
#   291135
#   324959
#
# Disc length: 4708 seconds
#
# Revision: 0
# Processed by: cddbd v1.5.2PL0 Copyright (c) Steve Scherf et al.
# Submitted via: GXTranscoder 2.24.2980
#
DISCID=af12620c
DTITLE=Arto Paasilinna - Im Jenseits ist die Hölle los
DYEAR=1900
DGENRE=Blues
TTITLE0=0201
TTITLE1=0202
TTITLE2=0203
TTITLE3=0204
TTITLE4=0205
TTITLE5=0206
TTITLE6=0207
TTITLE7=0208
TTITLE8=0209
TTITLE9=0210
TTITLE10=0211
TTITLE11=0212
EXTD=
EXTT0=
EXTT1=
EXTT2=
EXTT3=
EXTT4=
EXTT5=
EXTT6=
EXTT7=
EXTT8=
EXTT9=
EXTT10=
EXTT11=
PLAYORDER=
